<?xml version="1.0" encoding="UTF-8"?>
<svg width="65px" height="45px" viewBox="0 0 65 45" version="1.1" xmlns="http://www.w3.org/2000/svg" xmlns:xlink="http://www.w3.org/1999/xlink">
    <title>ideal</title>
    <g id="payment-methods" stroke="none" stroke-width="1" fill="none" fill-rule="evenodd">
        <g id="ideal">
            <rect id="Rectangle" x="0" y="0" width="65" height="45" rx="6"></rect>
            <g id="ideal_logo" transform="translate(7.000000, 0.000000)" fill-rule="nonzero">
                <path d="M0,3.33543342 L0,41.6645666 C0,43.5066756 1.4971078,45 3.34388386,45 L26.3029905,45 C43.6527319,45 51.1764706,35.3072305 51.1764706,22.4558055 C51.1764706,9.65441204 43.6527319,0 26.3029905,0 L3.34388386,0 C1.4971078,0 0,1.49332441 0,3.33543342 Z" id="Path" fill="#FFFFFF"></path>
                <path d="M25.8534795,41.4705882 L5.8611054,41.4705882 C4.08680142,41.4687521 2.64890417,40.0380531 2.64705882,38.2726314 L2.64705882,5.84501568 C2.64890417,4.07959398 4.08680142,2.64889494 5.8611054,2.64705882 L25.8534795,2.64705882 C44.8146803,2.64705882 47.6470588,14.7809733 47.6470588,22.0146851 C47.6470588,34.5650001 39.9065633,41.4705882 25.8534795,41.4705882 Z M5.8611054,3.71304444 C4.6778369,3.71396138 3.71857931,4.66767178 3.7167337,5.84501568 L3.7167337,38.2726314 C3.71857931,39.4499753 4.6778369,40.4036857 5.8611054,40.4046026 L25.8534795,40.4046026 C39.2152085,40.4046026 46.57571,33.8737751 46.57571,22.0146851 C46.57571,6.09152486 33.592301,3.71304444 25.8534795,3.71304444 L5.8611054,3.71304444 Z" id="Shape" fill="#000000"></path>
                <path d="M15,9.22398822 L15,37.9411765 L27.2632279,37.9411765 C38.4046775,37.9411765 43.2352941,31.523493 43.2352941,22.4703981 C43.2352941,13.7978986 38.4046775,7.05882353 27.2632279,7.05882353 L17.1240774,7.05882353 C15.9509818,7.05882353 15,8.02820078 15,9.22398822 Z" id="Path" fill="#CC0066"></path>
                <polygon id="Path" fill="#FFFFFF" points="39.3133153 18.5294118 39.3133153 24.2829795 42.3529412 24.2829795 42.3529412 25.5882353 37.9411765 25.5882353 37.9411765 18.5294118"></polygon>
                <path d="M33.8151536,18.5294118 L36.1764706,25.5882353 L34.7366431,25.5882353 L34.2587761,24.0219283 L31.8959025,24.0219283 L31.4009132,25.5882353 L30,25.5882353 L32.3877787,18.5294118 L33.8151536,18.5294118 Z M33.8945387,22.8593804 L33.0991313,20.2697529 L33.082009,20.2697529 L32.2601399,22.8593804 L33.8945387,22.8593804 Z" id="Shape" fill="#FFFFFF"></path>
                <polygon id="Path" fill="#FFFFFF" points="29.0385277 18.5294118 29.0385277 19.8346676 25.3560372 19.8346676 25.3560372 21.347024 28.7358101 21.347024 28.7358101 22.5530804 25.3560372 22.5530804 25.3560372 24.2829795 29.1176471 24.2829795 29.1176471 25.5882353 23.8235294 25.5882353 23.8235294 18.5294118"></polygon>
                <path d="M19.775111,18.5295301 C20.2025867,18.5260416 20.6272516,18.5996985 21.0291598,18.7470412 C21.408089,18.8867877 21.7517503,19.1096263 22.0354952,19.3995744 C22.3316519,19.7098317 22.5586564,20.0806728 22.7012248,20.4871298 C22.869482,20.9799233 22.9504278,21.4988907 22.940337,22.0201479 C22.9447147,22.5012268 22.8786288,22.9803089 22.7442306,23.4418002 C22.6255642,23.8544032 22.4247747,24.2381159 22.1541912,24.5693777 C21.884511,24.8899109 21.5470569,25.1450309 21.1667783,25.3158757 C20.7274065,25.5059521 20.2528499,25.5985175 19.775111,25.5873295 L16.7647059,25.5873295 L16.7647059,18.5295301 L19.775111,18.5295301 Z M19.6667364,24.2822634 C19.8861643,24.2823918 20.1041133,24.2459416 20.3118232,24.1743775 C20.5230857,24.09959 20.7140071,23.9756083 20.8691782,23.8124391 C21.0437742,23.6241881 21.1768723,23.4005881 21.2596708,23.1564257 C21.3648792,22.8380815 21.4143613,22.5036078 21.4058905,22.1680554 C21.4090462,21.8438291 21.374987,21.5203281 21.3043968,21.2040463 C21.2432251,20.9365751 21.1258889,20.6855444 20.9603505,20.4679888 C20.7975251,20.2591454 20.5834012,20.0971487 20.3393469,19.9981649 C20.0354861,19.8804675 19.7115729,19.8248731 19.3863387,19.8345966 L18.2922715,19.8345966 L18.2922715,24.2822634 L19.6667364,24.2822634 Z" id="Shape" fill="#FFFFFF"></path>
                <path d="M10.1478369,27.3529412 L10.1478369,27.3529412 C11.3656824,27.3529412 12.3529412,28.3922901 12.3529412,29.6743913 L12.3529412,37.9411765 L12.3529412,37.9411765 C9.91639081,37.9411765 7.94117647,35.8617462 7.94117647,33.296639 L7.94117647,29.6743913 C7.94117647,29.0584207 8.17371275,28.4677025 8.58758665,28.0322991 C9.00146055,27.5968957 9.56273732,27.3525071 10.1478369,27.3529412 L10.1478369,27.3529412 Z" id="Path" fill="#000000"></path>
                <circle id="Oval" fill="#000000" cx="10.1470588" cy="21.6176471" r="3.08823529"></circle>
            </g>
        </g>
    </g>
</svg>