<?xml version="1.0" encoding="UTF-8"?>
<svg width="65px" height="45px" viewBox="0 0 65 45" version="1.1" xmlns="http://www.w3.org/2000/svg" xmlns:xlink="http://www.w3.org/1999/xlink">
    <title>paypal</title>
    <g id="payment-methods" stroke="none" stroke-width="1" fill="none" fill-rule="evenodd">
        <g id="paypal">
            <rect id="Rectangle" x="0" y="0" width="65" height="45" rx="6"></rect>
            <g id="paypal_logo" transform="translate(13.000000, 0.000000)" fill-rule="nonzero">
                <path d="M32.4709033,3.39329719 C30.3879807,1.01835695 26.6196835,0 21.8014233,0 L7.81599329,0 C6.83090211,0 5.99196667,0.715255668 5.83671778,1.68925764 L0.0148363297,38.6255545 C-0.0886629495,39.2798176 0.360479485,39.8952686 1.01474267,39.9969197 C1.07758151,40.0061607 1.14028727,40.0117053 1.20312611,40.0117053 L9.83792527,40.0117053 L12.0058097,26.2573928 L11.9374447,26.6880237 C12.0889972,25.7177181 12.924458,25.0006161 13.907701,24.9987679 L18.010652,24.9987679 C26.070583,24.9987679 32.3823745,21.7256037 34.225031,12.2535732 C34.2786288,11.9744948 34.3264972,11.7009241 34.3671577,11.4347831 C34.9160734,7.93429029 34.3653095,5.55199606 32.4709033,3.39329719 Z" id="Path" fill="#003087"></path>
                <path d="M32.4709033,3.39329719 C30.3879807,1.01835695 26.6196835,0 21.8014233,0 L7.81599329,0 C6.83090211,0 5.99196667,0.715255668 5.83671778,1.68925764 L0.0148363297,38.6255545 C-0.0886629495,39.2798176 0.360479485,39.8952686 1.01474267,39.9969197 C1.07758151,40.0061607 1.14028727,40.0117053 1.20312611,40.0117053 L9.83792527,40.0117053 L12.0058097,26.2573928 L11.9374447,26.6880237 C12.0889972,25.7177181 12.924458,25.0006161 13.907701,24.9987679 L18.010652,24.9987679 C26.070583,24.9987679 32.3823745,21.7256037 34.225031,12.2535732 C34.2786288,11.9744948 34.3264972,11.7009241 34.3671577,11.4347831 C34.9160734,7.93429029 34.3653095,5.55199606 32.4709033,3.39329719 Z" id="Path" fill="#003087"></path>
                <path d="M14.3345985,11.4809882 C14.4695172,10.6308157 15.2014787,10.004294 16.0645887,10.0024458 L27.028136,10.0024458 C28.3274213,10.0024458 29.537993,10.087463 30.6450655,10.2648903 C31.2494272,10.362845 31.8482444,10.495934 32.4378205,10.6659685 C33.1068693,10.854485 33.7537397,11.111348 34.3691907,11.4347831 C34.9181064,7.93244209 34.3673425,5.55199606 32.4729364,3.39329719 C30.3881655,1.01835695 26.6215317,0.00180488295 21.8032715,0.00180488295 L7.81604873,0.00180488295 C6.83280575,0.00180488295 5.99377791,0.718909561 5.84037722,1.69106333 L0.0166885783,38.6237063 C-0.0868106824,39.2779694 0.36052569,39.8934204 1.01478887,39.9969197 C1.07762771,40.0061607 1.14033533,40.0117053 1.20317416,40.0117053 L9.83977347,40.0117053 L12.0078797,26.2555446 L14.3345985,11.4809882 Z" id="Path" fill="#003087"></path>
                <path d="M34.3671577,11.4329719 C34.324649,11.7065057 34.2765958,11.9800394 34.222998,12.251725 C32.3784933,21.7219073 26.0689196,24.9969197 18.0088407,24.9969197 L13.9040785,24.9969197 C12.9208356,24.9969197 12.0853378,25.7158699 11.9356335,26.6861755 L9.83428432,40.0080089 L9.23552261,43.7857319 C9.14496076,44.3586742 9.53659457,44.8983489 10.1095369,44.9870626 C10.1649829,44.9963036 10.2187841,45 10.2742301,45 L17.5524275,45 C18.4136892,45 19.1453735,44.3734598 19.2821404,43.5214391 L19.3544051,43.1499507 L20.7255854,34.4560128 L20.8124509,33.9754805 C20.9473696,33.125308 21.6811054,32.4987679 22.5442153,32.4987679 L23.6328058,32.4987679 C30.6836929,32.4987679 36.2044543,29.6359044 37.8179339,21.3504189 C38.4906791,17.8887383 38.1413691,14.9962851 36.3615514,12.9669603 C35.7960019,12.3404202 35.1193755,11.8210941 34.3671577,11.4329719 Z" id="Path" fill="#009CDE"></path>
                <path d="M32.4378205,10.6659685 C32.156894,10.5827994 31.865063,10.5088529 31.5675026,10.4423176 C31.2699423,10.3757824 30.9594445,10.3185067 30.6434021,10.2686052 C29.5344815,10.0874815 28.3255731,10.0024458 27.0244396,10.0024458 L16.0609847,10.0024458 C15.1978748,10.0024458 14.464065,10.6289675 14.3309945,11.4809882 L12.0004499,26.2573928 L11.9338962,26.6861755 C12.0836005,25.7158699 12.9207247,24.9969197 13.9021195,24.9969197 L18.0071034,24.9969197 C26.0670714,24.9969197 32.3786781,21.7237555 34.2213346,12.251725 C34.2767806,11.9707984 34.3229856,11.7009611 34.3654943,11.4329719 C33.8775692,11.1779202 33.3711621,10.965377 32.8499694,10.7934943 C32.7150507,10.7491375 32.5782838,10.7066289 32.4378205,10.6659685 Z" id="Path" fill="#012169"></path>
            </g>
        </g>
    </g>
</svg>