<svg width="20" height="20" viewBox="0 0 20 20" fill="none" xmlns="http://www.w3.org/2000/svg">
<path d="M9.16669 16.6667C7.70341 16.6711 6.2919 16.1254 5.21212 15.1378C4.13234 14.1503 3.46316 12.7929 3.3373 11.3351C3.21144 9.87721 3.6381 8.42529 4.53265 7.26727C5.4272 6.10926 6.7243 5.32974 8.16669 5.08332C12.9167 4.16666 14.1667 3.73332 15.8334 1.66666C16.6667 3.33332 17.5 5.14999 17.5 8.33332C17.5 12.9167 13.5167 16.6667 9.16669 16.6667Z" stroke="white" stroke-width="1.66667" stroke-linecap="round" stroke-linejoin="round"/>
<path d="M1.66675 17.5C1.66675 15 3.20841 13.0333 5.90008 12.5C7.91675 12.1 10.0001 10.8333 10.8334 10" stroke="white" stroke-width="1.66667" stroke-linecap="round" stroke-linejoin="round"/>
</svg>
